<?xml version="1.0" encoding="UTF-8" standalone="no"?>
<!-- This is a Stata 18.0 generated SVG file (http://www.stata.com) -->

<svg version="1.1" width="7.500in" height="4.500in" viewBox="0 0 5400 3240" xmlns="http://www.w3.org/2000/svg" xmlns:xlink="http://www.w3.org/1999/xlink">
	<desc>Stata Graph - Graph</desc>
	<rect x="0" y="0" width="5400" height="3240" style="fill:#FFFFFF;stroke:none"/>
	<rect x="0.00" y="0.00" width="5400.00" height="3240.00" style="fill:#FFFFFF"/>
	<rect x="3.24" y="3.24" width="5393.52" height="3233.52" style="fill:none;stroke:#FFFFFF;stroke-width:6.48"/>
	<rect x="38.81" y="38.81" width="4459.73" height="3162.38" style="fill:#FFFFFF"/>
	<rect x="42.05" y="42.05" width="4453.25" height="3155.90" style="fill:none;stroke:#FFFFFF;stroke-width:6.48"/>
	<defs>
		<clipPath id="clipPath_IyPxGqMm">
			<path d="M2268.68 1620.00 L3745.49 1306.09 A1509.81 1509.81 0 0 0 2268.68 110.19 Z"/>
		</clipPath>
	</defs>
	<path d="M2268.68 1620.00 L3745.49 1306.09 A1509.81 1509.81 0 0 0 2268.68 110.19 Z" style="stroke:none;fill:#3191FF"/>
	<path d="M2268.68 1620.00 L3745.49 1306.09 A1509.81 1509.81 0 0 0 2268.68 110.19 Z" style="fill:none;stroke:#1A85FF;stroke-width:6.00" clip-path="url(#clipPath_IyPxGqMm)"/>
	<defs>
		<clipPath id="clipPath_UolthGLg">
			<path d="M2268.68 1620.00 L2478.80 3115.11 A1509.81 1509.81 0 0 0 3745.49 1306.09 Z"/>
		</clipPath>
	</defs>
	<path d="M2268.68 1620.00 L2478.80 3115.11 A1509.81 1509.81 0 0 0 3745.49 1306.09 Z" style="stroke:none;fill:#D8296A"/>
	<path d="M2268.68 1620.00 L2478.80 3115.11 A1509.81 1509.81 0 0 0 3745.49 1306.09 Z" style="fill:none;stroke:#D41159;stroke-width:6.00" clip-path="url(#clipPath_UolthGLg)"/>
	<defs>
		<clipPath id="clipPath_vIsiXBtF">
			<path d="M2268.68 1620.00 L859.15 1078.93 A1509.81 1509.81 0 0 0 2478.80 3115.11 Z"/>
		</clipPath>
	</defs>
	<path d="M2268.68 1620.00 L859.15 1078.93 A1509.81 1509.81 0 0 0 2478.80 3115.11 Z" style="stroke:none;fill:#19C58C"/>
	<path d="M2268.68 1620.00 L859.15 1078.93 A1509.81 1509.81 0 0 0 2478.80 3115.11 Z" style="fill:none;stroke:#00BF7F;stroke-width:6.00" clip-path="url(#clipPath_vIsiXBtF)"/>
	<defs>
		<clipPath id="clipPath_dWxYWDtB">
			<path d="M2268.68 1620.00 L2268.67 110.19 A1509.81 1509.81 0 0 0 859.15 1078.93 Z"/>
		</clipPath>
	</defs>
	<path d="M2268.68 1620.00 L2268.67 110.19 A1509.81 1509.81 0 0 0 859.15 1078.93 Z" style="stroke:none;fill:#FFD819"/>
	<path d="M2268.68 1620.00 L2268.67 110.19 A1509.81 1509.81 0 0 0 859.15 1078.93 Z" style="fill:none;stroke:#FFD400;stroke-width:6.00" clip-path="url(#clipPath_dWxYWDtB)"/>
	<rect x="4537.35" y="1278.96" width="784.86" height="682.09" style="fill:#FFFFFF"/>
	<rect x="4540.59" y="1282.20" width="778.38" height="675.61" style="fill:none;stroke:#FFFFFF;stroke-width:6.48"/>
	<rect x="4585.95" y="1327.56" width="259.20" height="112.39" style="fill:#3191FF"/>
	<rect x="4587.45" y="1329.06" width="256.20" height="109.39" style="fill:none;stroke:#3191FF;stroke-width:3.00"/>
	<rect x="4585.95" y="1485.00" width="259.20" height="112.56" style="fill:#D8296A"/>
	<rect x="4587.45" y="1486.50" width="256.20" height="109.56" style="fill:none;stroke:#D8296A;stroke-width:3.00"/>
	<rect x="4585.95" y="1642.44" width="259.20" height="112.56" style="fill:#19C58C"/>
	<rect x="4587.45" y="1643.94" width="256.20" height="109.56" style="fill:none;stroke:#19C58C;stroke-width:3.00"/>
	<rect x="4585.95" y="1800.06" width="259.20" height="112.39" style="fill:#FFD819"/>
	<rect x="4587.45" y="1801.56" width="256.20" height="109.39" style="fill:none;stroke:#FFD819;stroke-width:3.00"/>
	<text x="4912.65" y="1423.19" style="font-family:'Helvetica';font-size:112.56px;fill:#000000">NE</text>
	<text x="4912.65" y="1580.63" style="font-family:'Helvetica';font-size:112.56px;fill:#000000">N Cntrl</text>
	<text x="4912.65" y="1738.24" style="font-family:'Helvetica';font-size:112.56px;fill:#000000">South</text>
	<text x="4912.65" y="1895.69" style="font-family:'Helvetica';font-size:112.56px;fill:#000000">West</text>
</svg>
